<svg width="180" height="30" viewBox="0 0 180 30" fill="none" xmlns="http://www.w3.org/2000/svg">
<circle cx="15" cy="15" r="15" fill="#FEFEFE"/>
<path d="M30 15C30 6.75 23.25 0 15 0C6.75 0 0 6.75 0 15C0 22.5 5.4375 28.6875 12.5625 29.8125V19.3125H8.8125V15H12.5625V11.625C12.5625 7.875 14.8125 5.8125 18.1875 5.8125C19.875 5.8125 21.5625 6.1875 21.5625 6.1875V9.9375H19.6875C17.8125 9.9375 17.25 11.0625 17.25 12.1875V15H21.375L20.625 19.3125H17.0625V30C24.5625 28.875 30 22.5 30 15Z" fill="#1B1B1B"/>
<path d="M80 15C80 6.71573 73.2843 0 65 0C56.7157 0 50 6.71573 50 15C50 23.2843 56.7157 30 65 30C73.2843 30 80 23.2843 80 15Z" fill="#1B1B1B"/>
<path fill-rule="evenodd" clip-rule="evenodd" d="M59.3505 10H57.6001C57.1 10 57 10.2478 57 10.5209C57 11.0089 57.5934 13.4288 59.7631 16.6294C61.2095 18.8152 63.2474 20 65.1019 20C66.2145 20 66.3522 19.7368 66.3522 19.2836V17.6316C66.3522 17.1053 66.4576 17.0002 66.8099 17.0002C67.0695 17.0002 67.5146 17.1368 68.5531 18.1907C69.7399 19.4397 69.9356 20 70.6031 20H72.3535C72.8537 20 73.1037 19.7368 72.9595 19.2175C72.8016 18.6999 72.235 17.9489 71.4831 17.0588C71.0751 16.5514 70.4631 16.0049 70.2777 15.7317C70.0181 15.3804 70.0922 15.2243 70.2777 14.9121C70.2777 14.9121 72.4103 11.7505 72.6328 10.6772C72.7441 10.2868 72.6328 10 72.1035 10H70.3531C69.908 10 69.7028 10.2478 69.5915 10.5209C69.5915 10.5209 68.7014 12.8043 67.4404 14.2875C67.0324 14.7168 66.847 14.8535 66.6244 14.8535C66.5132 14.8535 66.3521 14.7168 66.3521 14.3266V10.6772C66.3521 10.2087 66.223 10 65.852 10H63.1014C62.8233 10 62.656 10.2174 62.656 10.4234C62.656 10.8674 63.2865 10.9698 63.3515 12.2188V14.9316C63.3515 15.5263 63.2494 15.6342 63.0269 15.6342C62.4335 15.6342 60.99 13.3406 60.1339 10.7162C59.9662 10.2061 59.7979 10 59.3505 10Z" fill="#FEFEFE"/>
<path d="M100 15C100 23.2843 106.716 30 115 30C123.284 30 130 23.2843 130 15C130 6.71573 123.284 0 115 0C106.716 0 100 6.71573 100 15Z" fill="#1B1B1B"/>
<path d="M115 8.625C117.062 8.625 117.344 8.625 118.188 8.625C118.938 8.625 119.312 8.8125 119.594 8.90625C119.969 9.09375 120.25 9.1875 120.531 9.46875C120.812 9.75 121 10.0313 121.094 10.4063C121.188 10.6875 121.281 11.0625 121.375 11.8125C121.375 12.6563 121.375 12.8438 121.375 15C121.375 17.1562 121.375 17.3438 121.375 18.1875C121.375 18.9375 121.188 19.3125 121.094 19.5938C120.906 19.9687 120.812 20.25 120.531 20.5312C120.25 20.8125 119.969 21 119.594 21.0938C119.312 21.1875 118.938 21.2812 118.188 21.375C117.344 21.375 117.156 21.375 115 21.375C112.844 21.375 112.656 21.375 111.813 21.375C111.063 21.375 110.688 21.1875 110.406 21.0938C110.031 20.9062 109.75 20.8125 109.469 20.5312C109.188 20.25 109 19.9687 108.906 19.5938C108.813 19.3125 108.719 18.9375 108.625 18.1875C108.625 17.3438 108.625 17.1562 108.625 15C108.625 12.8438 108.625 12.6563 108.625 11.8125C108.625 11.0625 108.813 10.6875 108.906 10.4063C109.094 10.0313 109.188 9.75 109.469 9.46875C109.75 9.1875 110.031 9 110.406 8.90625C110.688 8.8125 111.063 8.71875 111.813 8.625C112.656 8.625 112.938 8.625 115 8.625ZM115 7.21875C112.844 7.21875 112.656 7.21875 111.813 7.21875C110.969 7.21875 110.406 7.40625 109.938 7.59375C109.469 7.78125 109 8.0625 108.531 8.53125C108.063 9 107.875 9.375 107.594 9.9375C107.406 10.4063 107.312 10.9688 107.219 11.8125C107.219 12.6563 107.219 12.9375 107.219 15C107.219 17.1562 107.219 17.3438 107.219 18.1875C107.219 19.0312 107.406 19.5938 107.594 20.0625C107.781 20.5312 108.063 21 108.531 21.4688C109 21.9375 109.375 22.125 109.938 22.4063C110.406 22.5938 110.969 22.6875 111.813 22.7812C112.656 22.7812 112.938 22.7812 115 22.7812C117.062 22.7812 117.344 22.7812 118.188 22.7812C119.031 22.7812 119.594 22.5938 120.062 22.4063C120.531 22.2188 121 21.9375 121.469 21.4688C121.938 21 122.125 20.625 122.406 20.0625C122.594 19.5938 122.687 19.0312 122.781 18.1875C122.781 17.3438 122.781 17.0625 122.781 15C122.781 12.9375 122.781 12.6563 122.781 11.8125C122.781 10.9688 122.594 10.4063 122.406 9.9375C122.219 9.46875 121.938 9 121.469 8.53125C121 8.0625 120.625 7.875 120.062 7.59375C119.594 7.40625 119.031 7.3125 118.188 7.21875C117.344 7.21875 117.156 7.21875 115 7.21875Z" fill="#FEFEFE"/>
<path d="M115 10.9688C112.75 10.9688 110.969 12.75 110.969 15C110.969 17.25 112.75 19.0312 115 19.0312C117.25 19.0312 119.031 17.25 119.031 15C119.031 12.75 117.25 10.9688 115 10.9688ZM115 17.625C113.594 17.625 112.375 16.5 112.375 15C112.375 13.5938 113.5 12.375 115 12.375C116.406 12.375 117.625 13.5 117.625 15C117.625 16.4062 116.406 17.625 115 17.625Z" fill="#FEFEFE"/>
<path d="M119.125 11.8125C119.643 11.8125 120.062 11.3928 120.062 10.875C120.062 10.3572 119.643 9.9375 119.125 9.9375C118.607 9.9375 118.188 10.3572 118.188 10.875C118.188 11.3928 118.607 11.8125 119.125 11.8125Z" fill="#FEFEFE"/>
<path d="M150 15C150 23.2843 156.716 30 165 30C173.284 30 180 23.2843 180 15C180 6.71573 173.284 0 165 0C156.716 0 150 6.71573 150 15Z" fill="#1B1B1B"/>
<path d="M158.031 14.3515C162.058 12.5972 164.743 11.4407 166.086 10.8819C169.922 9.28648 170.719 9.00934 171.238 9.00009C171.353 8.99817 171.608 9.02649 171.774 9.16077C171.913 9.27416 171.952 9.42732 171.97 9.53482C171.989 9.64232 172.012 9.88721 171.993 10.0786C171.785 12.2626 170.886 17.5626 170.428 20.0088C170.235 21.0439 169.854 21.3909 169.485 21.4249C168.682 21.4987 168.073 20.8948 167.297 20.3855C166.081 19.5887 165.394 19.0926 164.214 18.315C162.85 17.4164 163.734 16.9224 164.512 16.1152C164.715 15.904 168.249 12.6895 168.317 12.3979C168.326 12.3614 168.334 12.2255 168.253 12.1537C168.172 12.0819 168.053 12.1065 167.967 12.126C167.845 12.1537 165.903 13.4373 162.141 15.9768C161.59 16.3553 161.091 16.5397 160.643 16.5301C160.15 16.5194 159.201 16.2512 158.496 16.022C157.631 15.7408 156.944 15.5921 157.004 15.1146C157.035 14.8659 157.377 14.6115 158.031 14.3515Z" fill="#FEFEFE"/>
</svg>
